HIERARCHY
ROOT Hips
{
	OFFSET 0.00000 0.00000 0.00000
	CHANNELS 6 Xposition Yposition Zposition Yrotation Zrotation Xrotation 
	JOINT Lumbar
	{
		OFFSET 0 0 0
		CHANNELS 3 Zrotation Xrotation Yrotation
		JOINT Neck
		{
			OFFSET 0.00 0.2701 0.00
			CHANNELS 3 Zrotation Xrotation Yrotation
			End Site
			{
				OFFSET 0.00 0.1379 0.00
			}
		}
		JOINT RightShoulder
		{
			OFFSET 0.0119 0.2289 0.1181
			CHANNELS 3 Zrotation Xrotation Yrotation
			JOINT RightElbow
			{
				OFFSET 0.00 -0.1475 0.00
				CHANNELS 2 Zrotation Yrotation
				JOINT RightWrist
				{
					OFFSET 0.00 -0.1605 0.00
					CHANNELS 2 Zrotation Xrotation
					End Site
					{
						OFFSET 0.0040 -0.1068 0.0006
					}
				}
			}
		}
		JOINT LeftShoulder
		{
			OFFSET 0.0119 0.2289 -0.1181
			CHANNELS 3 Zrotation Xrotation Yrotation
			JOINT LeftElbow
			{
				OFFSET 0.00 -0.1475 0.00
				CHANNELS 2 Zrotation Yrotation
				JOINT LeftWrist
				{
					OFFSET 0.00 -0.1605 0.00
					CHANNELS 2 Zrotation Xrotation
					End Site
					{
						OFFSET 0.0040 -0.1068 -0.0006
					}
				}
			}
		}
	}
	JOINT RightHip
	{
		OFFSET 0.0316 -0.0424 0.0458
		CHANNELS 3 Zrotation Xrotation Yrotation
		JOINT RightKnee
		{
			OFFSET 0.00 -0.2438 0.00
			CHANNELS 1 Zrotation
			JOINT RightAnkle
			{
				OFFSET 0.00 -0.2449 0.00
				CHANNELS 3 Zrotation Xrotation Yrotation
				End Site
				{
					OFFSET 0.1237 -0.0542 0.0051
				}
			}
		}
	}
	JOINT LeftHip
	{
		OFFSET 0.0316 -0.0424 -0.0458
		CHANNELS 3 Zrotation Xrotation Yrotation
		JOINT LeftKnee
		{
			OFFSET 0.00 -0.2438 0.00
			CHANNELS 1 Zrotation
			JOINT LeftAnkle
			{
				OFFSET 0.00 -0.2449 0.00
				CHANNELS 3 Zrotation Xrotation Yrotation
				End Site
				{
					OFFSET 0.1237 -0.0542 -0.0051
				}
			}
		}
	}
}
MOTION
Frames: 31
Frame Time: 0.02
-8e-05 3e-05 6e-05 18.48153 -33.88982 -2.05154 57.46718 -0.14818 0.41231 -10.88279 -0.61044 -1.19046 133.14272 -84.92893 -66.21826 9.20192 72.40881 1.46065 -6.36426 166.39211 81.97709 59.62353 8.04801 -70.70842 1.0275 9.28227 49.68928 -0.65044 -6.29467 -19.29065 -8.02838 -4.16084 -4.33625 53.9325 1.08843 4.33327 -24.56725 -8.40851 4.01034 4.28451
-2e-05 4e-05 9e-05 18.54412 -33.88966 -2.05258 57.46937 -0.15409 0.39158 -10.92466 -0.60238 -1.19083 133.44973 -84.92601 -66.01855 9.19116 72.37975 1.48331 -6.3343 166.39074 81.94947 60.08079 8.02462 -70.68326 1.08946 9.22456 49.66548 -0.71738 -6.67942 -19.2858 -7.9972 -4.13928 -4.32352 53.91915 1.17983 4.77262 -24.56722 -8.36697 3.97163 4.2626
4e-05 4e-05 0.00012 18.60656 -33.88948 -2.05361 57.47154 -0.15997 0.37093 -10.96643 -0.59436 -1.19119 133.75589 -84.9231 -65.81937 9.18042 72.35078 1.50591 -6.30444 166.38939 81.92197 60.53713 8.00121 -70.65813 1.15132 9.16697 49.64171 -0.78419 -7.06342 -19.28094 -7.96608 -4.11776 -4.31082 53.9058 1.27107 5.21127 -24.56719 -8.32551 3.93298 4.24073
0.0001 5e-05 0.00015 18.66896 -33.88931 -2.05465 57.47372 -0.16586 0.35026 -11.00818 -0.58633 -1.19156 134.06204 -84.92019 -65.62021 9.16969 72.32181 1.5285 -6.27458 166.38803 81.89443 60.99306 7.97788 -70.63304 1.2131 9.10942 49.61799 -0.85094 -7.44706 -19.2761 -7.93499 -4.09626 -4.29812 53.89248 1.36221 5.64938 -24.56715 -8.28408 3.89438 4.21889
0.00015 5e-05 0.00018 18.7315 -33.88918 -2.0557 57.47591 -0.17176 0.32951 -11.04999 -0.57825 -1.19193 134.36882 -84.91726 -65.42072 9.15895 72.29275 1.55115 -6.24461 166.38666 81.86678 61.44973 7.95458 -70.60796 1.27496 9.05178 49.59426 -0.91779 -7.83126 -19.27125 -7.90385 -4.07473 -4.28542 53.8792 1.45345 6.08792 -24.56712 -8.2426 3.85573 4.19702
0.00021 6e-05 0.0002 18.79372 -33.8889 -2.05669 57.47806 -0.1776 0.30909 -11.09167 -0.57036 -1.19228 134.67356 -84.9144 -65.22227 9.14819 72.26398 1.57366 -6.21497 166.38532 81.8396 61.90533 7.93096 -70.58273 1.33681 8.99431 49.57041 -0.98454 -8.21481 -19.26639 -7.87277 -4.05322 -4.27272 53.86569 1.54471 6.52673 -24.56709 -8.20118 3.81708 4.17515
0.00027 6e-05 0.00023 18.85652 -33.88891 -2.0578 57.48029 -0.18358 0.28801 -11.13359 -0.5621 -1.19266 134.98251 -84.91139 -65.02158 9.13748 72.23464 1.59642 -6.18471 166.38394 81.81146 62.36259 7.90801 -70.5578 1.39861 8.93656 49.54682 -1.05141 -8.5993 -19.26156 -7.8416 -4.03169 -4.26001 53.85264 1.63583 6.96461 -24.56705 -8.15968 3.77848 4.15331
0.00033 7e-05 0.00026 18.91877 -33.88865 -2.0588 57.48244 -0.18942 0.26755 -11.17528 -0.55418 -1.19302 135.28679 -84.90854 -64.82363 9.12673 72.20586 1.61892 -6.15502 166.38255 81.78428 62.81831 7.88446 -70.53263 1.46046 8.87907 49.523 -1.11815 -8.98279 -19.2567 -7.81052 -4.01019 -4.24732 53.83918 1.72705 7.40319 -24.56702 -8.11827 3.73984 4.13144
0.00039 7e-05 0.00029 18.98043 -33.88805 -2.05966 57.48452 -0.19511 0.2478 -11.21675 -0.54668 -1.19335 135.58865 -84.90582 -64.62624 9.11593 72.17761 1.64123 -6.12603 166.38136 81.75797 63.27246 7.86005 -70.50699 1.52239 8.82182 49.49884 -1.18486 -9.36582 -19.25179 -7.77953 -3.98869 -4.23461 53.82515 1.81858 7.84355 -24.56699 -8.07688 3.70111 4.1095
0.00045 8e-05 0.00032 19.04576 -33.88938 -2.06133 57.48707 -0.20173 0.22381 -11.25965 -0.53677 -1.19383 135.91432 -84.90216 -64.41723 9.10538 72.14584 1.66504 -6.093 166.37964 81.72573 63.73661 7.84023 -70.48353 1.58394 8.76295 49.47645 -1.25212 -9.75383 -19.24713 -7.74793 -3.96705 -4.22188 53.81421 1.9089 8.27644 -24.56692 -8.03511 3.66274 4.08786
0.0005 8e-05 0.00034 19.10314 -33.88666 -2.06126 57.48857 -0.20633 0.20889 -11.29943 -0.53192 -1.19401 136.18339 -84.9006 -64.23814 9.09434 72.12181 1.68542 -6.06851 166.37865 81.70661 64.17892 7.81096 -70.45581 1.6462 8.70767 49.45048 -1.31799 -10.12978 -19.24198 -7.71772 -3.94579 -4.20926 53.79687 2.00137 8.72322 -24.56696 -7.99429 3.62376 4.06569
0.00055 9e-05 0.00035 19.14028 -33.87262 -2.05658 57.48753 -0.20571 0.21808 -11.33125 -0.5412 -1.19327 136.34293 -84.90373 -64.10085 9.08153 72.11673 1.69822 -6.06763 166.38036 81.71927 64.56842 7.7535 -70.41404 1.71118 8.66079 49.41318 -1.38203 -10.48545 -19.23524 -7.69051 -3.92503 -4.19651 53.76063 2.10321 9.22402 -24.56719 -7.95485 3.58189 4.04124
0.00059 9e-05 0.00034 19.16911 -33.85453 -2.05013 57.48532 -0.203 0.23654 -11.35977 -0.55549 -1.19225 136.43369 -84.9091 -64.00341 9.06826 72.11989 1.70711 -6.07533 166.38099 81.74607 64.93558 7.68692 -70.36875 1.77656 8.61767 49.37253 -1.44434 -10.82682 -19.22807 -7.66484 -3.90474 -4.18393 53.71818 2.20655 9.73575 -24.56755 -7.91659 3.53964 4.01641
0.00064 9e-05 0.00034 19.20076 -33.83847 -2.04441 57.48348 -0.20102 0.25123 -11.38943 -0.56734 -1.1914 136.5304 -84.91419 -63.91106 9.05549 72.12073 1.71677 -6.07896 166.38378 81.76896 65.30715 7.62606 -70.32622 1.84151 8.57392 49.33439 -1.50612 -11.16609 -19.22126 -7.63902 -3.88461 -4.17156 53.67942 2.30694 10.23217 -24.5679 -7.87854 3.49836 3.99228
0.00069 0.0001 0.00034 19.23658 -33.82171 -2.039 57.48248 -0.19995 0.26401 -11.42074 -0.57992 -1.19036 136.74796 -84.91641 -63.71123 9.04159 72.1154 1.7312 -6.08323 166.38641 81.78056 65.69914 7.55875 -70.27751 1.90826 8.52606 49.29213 -1.57332 -11.5408 -19.2137 -7.61095 -3.86295 -4.158 53.63702 2.41695 10.77257 -24.56804 -7.83729 3.45371 3.96593
0.00072 0.0001 0.00034 19.26155 -33.80532 -2.03252 57.47926 -0.19647 0.28304 -11.44765 -0.59212 -1.18965 136.67978 -84.92484 -63.7568 9.02981 72.12508 1.73409 -6.08834 166.38045 81.81992 66.04805 7.50245 -70.24241 1.9704 8.48712 49.25762 -1.62899 -11.83935 -19.20765 -7.58786 -3.84454 -4.14692 53.6007 2.50724 11.2236 -24.56867 -7.80304 3.41602 3.94412
0.00067 8e-05 0.00033 19.26032 -33.79203 -2.02346 57.47156 -0.18714 0.31627 -11.46446 -0.60256 -1.18999 135.97821 -84.9513 -64.36227 9.024 72.17277 1.70778 -6.09273 166.39744 81.92452 66.24537 7.48074 -70.23372 2.02143 8.47463 49.24583 -1.65191 -11.92199 -19.20548 -7.57882 -3.83558 -4.14311 53.58314 2.54307 11.42806 -24.57056 -7.78748 3.39719 3.93479
0.0006 5e-05 0.00032 19.24818 -33.77905 -2.01337 57.46127 -0.17542 0.35559 -11.47646 -0.61236 -1.19066 134.95676 -84.98296 -65.23023 9.01971 72.23586 1.66684 -6.09808 166.37803 82.05785 66.40891 7.46987 -70.24203 2.06302 8.46924 49.24193 -1.66354 -11.93003 -19.20494 -7.57463 -3.82978 -4.14171 53.57188 2.55893 11.5417 -24.57298 -7.779 3.38545 3.93008
0.00054 2e-05 0.00031 19.23987 -33.76525 -2.00379 57.45143 -0.16457 0.39267 -11.49014 -0.62214 -1.19115 134.00193 -85.01219 -66.05292 9.01548 72.29243 1.63508 -6.10326 166.36914 82.18352 66.61081 7.45305 -70.24922 2.11346 8.46033 49.23404 -1.68121 -11.97839 -19.20386 -7.56777 -3.82216 -4.13891 53.5574 2.58369 11.69493 -24.57518 -7.76751 3.37074 3.92338
0.00049 0 0.0003 19.23589 -33.75425 -1.99404 57.44515 -0.15445 0.42793 -11.50684 -0.63345 -1.19174 133.41327 -85.04469 -66.57784 9.01056 72.34597 1.60412 -6.10657 166.46415 82.2878 66.70793 7.44109 -70.22449 2.16299 8.4578 49.22751 -1.69499 -11.99982 -19.20175 -7.56289 -3.81616 -4.13739 53.54406 2.60924 11.85545 -24.57722 -7.75516 3.35497 3.91618
0.0004 -3e-05 0.0003 19.22057 -33.73745 -1.98436 57.43017 -0.14241 0.46818 -11.51492 -0.64132 -1.19222 131.94162 -85.06793 -67.76804 9.00431 72.41097 1.55351 -6.1152 166.23564 82.44216 67.02415 7.42064 -70.27524 2.18917 8.43734 49.22033 -1.71419 -12.05901 -19.20236 -7.55507 -3.80755 -4.1338 53.53012 2.62837 11.97931 -24.5798 -7.74628 3.34309 3.91112
0.00022 -9e-05 0.00031 19.17541 -33.70542 -1.97573 57.39749 -0.12454 0.52174 -11.51036 -0.63994 -1.1923 128.51443 -85.09245 -70.8752 9.02185 72.49147 1.58299 -6.128 165.98923 82.73287 67.87596 7.38377 -70.48337 2.35919 8.42142 49.20753 -1.75132 -12.2473 -19.20877 -7.53762 -3.79077 -4.12364 53.51171 2.63485 12.02182 -24.58321 -7.74528 3.34032 3.91096
-2e-05 -0.00016 0.00033 19.11949 -33.66749 -1.9671 57.35503 -0.10507 0.57986 -11.49507 -0.63503 -1.19229 124.14709 -85.10007 -74.6158 9.03351 72.58613 1.5731 -6.1485 165.27376 83.069 68.96084 7.33654 -70.7722 2.47408 8.37823 49.19438 -1.79422 -12.47478 -19.21818 -7.51714 -3.7713 -4.11138 53.49294 2.6355 12.03084 -24.58729 -7.74753 3.34123 3.91277
-0.00024 -0.00023 0.00036 19.06926 -33.63166 -1.95805 57.31338 -0.08704 0.63518 -11.47859 -0.63171 -1.19233 119.92931 -85.09969 -77.97157 9.02869 72.68126 1.49007 -6.17156 164.18309 83.38469 69.99416 7.28738 -71.05922 2.47089 8.30908 49.18241 -1.83441 -12.68037 -19.22699 -7.49823 -3.75314 -4.10023 53.47498 2.63869 12.05683 -24.59135 -7.74827 3.3404 3.91359
-0.00042 -0.00028 0.00036 19.01515 -33.59802 -1.95068 57.28719 -0.0658 0.69383 -11.48904 -0.62861 -1.1923 116.82095 -85.17444 -81.74554 9.10185 72.74414 1.77325 -6.16705 165.50506 83.71273 70.80998 7.26535 -71.21379 3.04497 8.39613 49.1656 -1.87476 -12.90154 -19.23235 -7.47852 -3.73459 -4.08845 53.45376 2.64171 12.07274 -24.59404 -7.74937 3.34007 3.91493
-0.00069 -0.00037 0.0004 18.96685 -33.55874 -1.9399 57.22622 -0.05107 0.7465 -11.43906 -0.62401 -1.19242 111.2477 -85.07765 -84.79588 9.01488 72.88192 1.30658 -6.22435 161.77887 84.01015 72.11809 7.18581 -71.64542 2.43716 8.15876 49.15968 -1.91609 -13.09931 -19.24593 -7.45989 -3.71634 -4.07752 53.44009 2.64391 12.1023 -24.59998 -7.75043 3.33951 3.91564
-0.00118 -0.00055 0.00052 18.93609 -33.50224 -1.91898 57.07378 -0.05328 0.78218 -11.24015 -0.61791 -1.19288 98.53911 -84.60286 -85.68318 8.4553 73.18433 -1.41161 -6.42776 143.47355 84.34017 74.86843 6.93653 -72.97848 -1.70933 6.96759 49.17522 -1.96062 -13.23415 -19.2787 -7.4433 -3.69821 -4.06878 53.43916 2.64575 12.18324 -24.61255 -7.75041 3.33726 3.91392
-0.00177 -0.00076 0.00067 18.91169 -33.44069 -1.8947 56.88607 -0.06235 0.81183 -10.97768 -0.61015 -1.19355 83.48712 -83.93733 -85.81787 7.74074 73.56904 -4.84804 -6.69678 120.24779 84.61201 78.07858 6.63234 -74.56108 -6.99016 5.46292 49.20321 -2.00576 -13.34266 -19.32023 -7.42813 -3.68067 -4.06105 53.44712 2.64697 12.27864 -24.62871 -7.75026 3.33465 3.91152
-0.00233 -0.00096 0.00081 18.88535 -33.3837 -1.87254 56.7134 -0.06927 0.84344 -10.73463 -0.60185 -1.19411 69.87774 -83.30107 -86.30614 7.11803 73.94108 -7.82983 -6.95138 99.76605 84.82836 80.98878 6.36185 -75.92352 -11.56149 4.14408 49.23133 -2.04928 -13.4558 -19.35942 -7.41345 -3.66382 -4.05331 53.45664 2.6483 12.36415 -24.6447 -7.75026 3.33228 3.90955
-0.00283 -0.00114 0.00094 18.85518 -33.31759 -1.84819 56.54548 -0.07216 0.8773 -10.53228 -0.59859 -1.19452 54.64607 -82.91307 -86.78036 6.40466 74.20818 -11.35185 -7.14361 77.11242 85.39912 84.298 6.05345 -77.7283 -16.95077 2.64113 49.23551 -2.09817 -13.59992 -19.39141 -7.39412 -3.64306 -4.0437 53.4434 2.6502 12.46196 -24.65475 -7.74994 3.32975 3.90717
-0.00347 -0.00138 0.0011 18.83394 -33.26853 -1.8272 56.35825 -0.08496 0.90649 -10.22881 -0.58488 -1.19554 42.24285 -81.95479 -87.08121 5.84345 74.71449 -13.92189 -7.47825 57.83427 85.20863 86.87378 5.81192 -78.68398 -20.90878 1.44771 49.2919 -2.13656 -13.67441 -19.44091 -7.38455 -3.63037 -4.03813 53.47856 2.65076 12.53865 -24.67775 -7.75026 3.32739 3.90543
